# Blender 4.5.3 LTS Release Candidate
# www.blender.org
mtllib hand_grip.mtl
o Cube
v -0.019170 -0.023066 0.044937
v -0.018523 -0.023133 -0.040459
v -0.031244 0.050584 0.041832
v -0.030159 0.051655 -0.031129
v -0.007228 -0.013667 0.044937
v -0.007373 -0.014357 -0.040459
v -0.009899 0.062347 0.034434
v -0.016524 0.051654 -0.029360
v -0.018364 -0.031684 0.025706
v -0.020395 -0.031255 -0.000000
v -0.020787 -0.028314 -0.021813
v -0.018748 0.061829 -0.014640
v -0.020041 0.065765 0.000000
v -0.017131 0.066329 0.024416
v -0.035069 0.065271 0.025012
v -0.035005 0.065439 0.000000
v -0.033609 0.061529 -0.016409
v -0.000376 -0.021460 0.025706
v -0.002315 -0.020883 -0.000000
v -0.003917 -0.019731 -0.021813
v 0.030445 -0.008420 0.039093
v 0.036213 -0.013019 0.039093
v 0.036213 -0.013020 0.028676
v 0.030445 -0.008420 0.028676
v 0.029975 -0.002025 0.019702
v 0.030044 -0.001911 0.008471
v 0.024160 0.000222 0.019644
v 0.024229 0.000335 0.008414
v 0.032530 0.001266 -0.000911
v 0.032530 0.001266 -0.013098
v 0.025611 0.004282 -0.000911
v 0.025611 0.004282 -0.013098
v 0.027686 -0.009169 -0.031978
v 0.022929 -0.004249 -0.032159
v 0.026974 -0.009481 -0.021728
v 0.022217 -0.004561 -0.021909
v -0.014299 0.004794 -0.039138
v -0.015183 0.032149 -0.037048
v -0.031882 -0.004984 0.045643
v -0.031961 0.026572 0.045932
v -0.012459 0.015586 0.039071
v -0.015716 -0.002494 0.043639
v -0.030044 0.031848 -0.038817
v -0.028726 0.001240 -0.040950
v -0.041070 -0.008816 -0.025145
v -0.043494 0.026654 -0.023475
v -0.041376 -0.010794 -0.000000
v -0.046262 0.025972 0.000000
v -0.040089 -0.011557 0.025000
v -0.044771 0.026187 0.025309
v -0.015865 0.031173 -0.021706
v -0.014799 -0.000776 -0.022399
v -0.018822 0.030444 0.000000
v -0.016931 -0.005028 0.000000
v -0.015455 0.019516 0.024713
v -0.015107 -0.004970 0.025000
v -0.003854 -0.039217 0.027798
v 0.025507 -0.031546 0.028015
v 0.025508 -0.031545 0.040350
v -0.003853 -0.039218 0.041735
v 0.017621 -0.024706 0.040350
v 0.001975 -0.027040 0.041735
v 0.017620 -0.024707 0.028015
v 0.001975 -0.027040 0.027798
v 0.004851 -0.023681 0.004659
v 0.015617 -0.023184 0.006533
v 0.024532 -0.026810 0.006611
v -0.000854 -0.034314 0.004628
v -0.000852 -0.034268 0.021169
v 0.024433 -0.026975 0.020668
v 0.015518 -0.023349 0.020590
v 0.004853 -0.023635 0.021200
v 0.000456 -0.029829 -0.016116
v 0.025513 -0.019467 -0.015362
v 0.025513 -0.019467 -0.000429
v 0.000456 -0.029828 -0.000537
v 0.017708 -0.015401 -0.000429
v 0.005627 -0.020190 -0.000537
v 0.017708 -0.015401 -0.015362
v 0.005627 -0.020190 -0.016116
v 0.004362 -0.016344 -0.022061
v 0.012307 -0.013938 -0.022334
v 0.013290 -0.013869 -0.035272
v 0.004362 -0.016344 -0.037442
v 0.016875 -0.021774 -0.035043
v -0.000830 -0.026022 -0.037442
v 0.015891 -0.021843 -0.022105
v -0.000830 -0.026022 -0.022061
v -0.012025 0.047266 0.056668
v -0.003950 0.051275 0.045847
v -0.009099 0.025318 0.052052
v -0.000456 0.024902 0.042294
v 0.011195 0.033018 0.059534
v 0.015629 0.036736 0.048397
v 0.000931 0.023091 0.053947
v 0.008899 0.026913 0.042604
v 0.041275 0.011142 0.049366
v 0.038276 0.016618 0.045756
v 0.034135 0.003108 0.044585
v 0.031136 0.008584 0.040975
v 0.042324 0.009310 0.043278
v 0.040656 0.012355 0.041271
v 0.039151 0.005778 0.041212
v 0.037484 0.008823 0.039204
v 0.034706 -0.006014 0.036951
v 0.038102 -0.008722 0.036951
v 0.038102 -0.008722 0.030818
v 0.034705 -0.006014 0.030818
v 0.029399 0.001594 0.016932
v 0.029433 0.001651 0.011317
v 0.026795 0.002445 0.016903
v 0.026830 0.002501 0.011288
v 0.033145 0.005823 -0.003958
v 0.033145 0.005823 -0.010051
v 0.029685 0.007331 -0.003958
v 0.029685 0.007331 -0.010051
v 0.029594 -0.004838 -0.029137
v 0.027216 -0.002378 -0.029227
v 0.029238 -0.004994 -0.024012
v 0.026860 -0.002534 -0.024102
v 0.021162 0.016906 0.042914
v 0.017310 0.012896 0.051928
v 0.026565 0.020630 0.057602
v 0.030433 0.024656 0.048753
vn -0.4483 -0.0316 0.8933
vn -0.1342 0.7867 0.6026
vn 0.7666 0.6418 -0.0230
vn 0.1109 0.3656 -0.9242
vn -0.8730 0.1758 0.4550
vn 0.8658 -0.5004 -0.0000
vn -0.6928 0.7201 -0.0388
vn 0.9472 -0.3206 -0.0000
vn 0.0358 0.0666 -0.9971
vn -0.8170 0.2817 -0.5031
vn -0.9515 0.2822 -0.1222
vn -0.9658 0.2578 0.0272
vn 0.9050 0.4219 0.0548
vn 0.8034 0.5898 0.0818
vn 0.7402 0.6706 -0.0481
vn 0.0600 0.8304 -0.5539
vn -0.0058 0.9694 -0.2455
vn -0.0422 0.9991 -0.0056
vn 0.9016 -0.4298 0.0495
vn 0.0385 0.0460 0.9982
vn -0.7857 0.6187 -0.0000
vn 0.0203 0.0243 -0.9995
vn 0.2435 0.6416 -0.7273
vn 0.0058 0.0377 0.9993
vn 0.9763 -0.2166 0.0041
vn -0.9389 0.3441 -0.0025
vn -0.5991 0.8007 -0.0000
vn 0.0098 0.0203 0.9997
vn -0.9280 0.3726 -0.0000
vn 0.0455 0.0946 -0.9945
vn -0.4917 0.8708 -0.0000
vn 0.1928 0.0942 -0.9767
vn 0.7481 -0.6621 0.0438
vn -0.0426 0.0042 0.9991
vn 0.9922 0.0345 -0.1195
vn 0.9947 0.0367 -0.0959
vn 0.9925 0.0497 0.1117
vn 0.9920 0.0423 0.1193
vn 0.9951 0.0610 0.0775
vn 0.9986 0.0308 0.0430
vn -0.6889 -0.7243 0.0281
vn -0.9904 -0.1274 0.0533
vn -0.6907 -0.7194 -0.0741
vn -0.9928 -0.0989 -0.0682
vn -0.6807 -0.5181 -0.5178
vn -0.7686 -0.0067 -0.6397
vn -0.6914 -0.6231 0.3657
vn -0.8847 -0.0648 0.4615
vn 0.0517 0.0394 -0.9979
vn 0.1111 0.0764 -0.9909
vn 0.9183 -0.0295 -0.3949
vn 0.9942 -0.0765 -0.0753
vn 0.0479 0.0549 0.9973
vn 0.2556 0.0668 0.9645
vn 0.1332 -0.1416 -0.9809
vn 0.0094 0.0010 -1.0000
vn 0.8540 0.5174 0.0549
vn -0.1475 0.9891 -0.0000
vn 0.1293 -0.1065 0.9859
vn 0.0600 0.0065 0.9982
vn -0.6068 -0.7728 0.1860
vn 0.2528 -0.9675 -0.0000
vn 0.3724 0.9280 -0.0055
vn -0.0367 0.9993 0.0038
vn -0.1505 -0.9886 -0.0017
vn 0.2804 -0.9599 -0.0028
vn 0.2886 -0.3292 0.8991
vn 0.0288 0.0098 0.9995
vn 0.2570 -0.2897 -0.9220
vn 0.1018 0.0196 -0.9946
vn 0.3023 -0.3657 -0.8802
vn 0.0376 0.0072 -0.9993
vn -0.0227 0.9992 0.0318
vn -0.3685 0.9296 -0.0000
vn 0.0407 -0.0473 0.9980
vn -0.0054 -0.0010 1.0000
vn 0.0076 -0.9969 -0.0785
vn 0.3821 -0.9241 -0.0000
vn 0.0231 -0.0280 0.9993
vn 0.0097 0.0122 0.9999
vn -0.0045 -0.9886 -0.1508
vn 0.2374 -0.9714 0.0059
vn 0.1739 -0.1540 -0.9726
vn 0.1761 -0.0289 -0.9839
vn -0.0914 0.9822 0.1644
vn -0.2771 0.9608 -0.0073
vn 0.4351 0.7426 0.5092
vn 0.0262 -0.8031 0.5953
vn -0.1021 0.8278 0.5517
vn 0.6317 -0.0034 -0.7752
vn -0.5962 -0.6220 -0.5077
vn 0.0065 -0.9880 -0.1544
vn -0.2537 -0.2414 0.9367
vn 0.1935 0.2290 -0.9540
vn -0.2306 0.6397 -0.7332
vn 0.0440 -0.5835 0.8110
vn 0.1546 0.4359 -0.8866
vn 0.6750 0.5632 0.4766
vn 0.6457 -0.1411 -0.7504
vn 0.8756 0.4830 0.0055
vn -0.1913 -0.6111 -0.7681
vn 0.6037 -0.7291 0.3224
vn 0.6235 0.7818 -0.0000
vn 0.3103 0.9506 0.0115
vn 0.3997 0.9167 -0.0000
vn 0.7158 0.6947 0.0708
vn 0.2661 0.3337 -0.9043
vn 0.2267 0.5200 -0.8235
vn 0.2227 0.6263 0.7471
vn -0.4001 0.9165 0.0001
vn 0.2267 0.5200 0.8235
vn 0.2901 0.3137 0.9041
vn 0.2661 0.3337 0.9043
vn 0.9866 0.1631 0.0077
vn 0.9155 -0.4024 -0.0000
vn 0.9910 -0.1337 -0.0000
vn -0.6425 0.7663 0.0038
vn 0.4109 0.3666 -0.8347
vn 0.5639 0.6637 0.4914
vn 0.2910 0.3296 -0.8982
vn -0.1667 -0.3925 0.9045
vn -0.5034 -0.6673 -0.5490
vt 0.124853 0.887549
s 0
usemtl Material
f 3/1/1 40/1/1 91/1/1 89/1/1
f 15/1/2 3/1/2 7/1/2 14/1/2
f 56/1/3 42/1/3 5/1/3 18/1/3
f 38/1/4 43/1/4 4/1/4 8/1/4
f 50/1/5 40/1/5 3/1/5 15/1/5
f 59/1/6 58/1/6 23/1/6 22/1/6
f 83/1/7 82/1/7 36/1/7 34/1/7
f 75/1/8 74/1/8 30/1/8 29/1/8
f 67/1/9 66/1/9 28/1/9 26/1/9
f 43/1/10 46/1/10 17/1/10 4/1/10
f 46/1/11 48/1/11 16/1/11 17/1/11
f 48/1/12 50/1/12 15/1/12 16/1/12
f 37/1/13 52/1/13 20/1/13 6/1/13
f 52/1/14 54/1/14 19/1/14 20/1/14
f 54/1/15 56/1/15 18/1/15 19/1/15
f 4/1/16 17/1/16 12/1/16 8/1/16
f 17/1/17 16/1/17 13/1/17 12/1/17
f 16/1/18 15/1/18 14/1/18 13/1/18
f 35/1/19 33/1/19 117/1/19 119/1/19
f 61/1/20 59/1/20 22/1/20 21/1/20
f 63/1/21 61/1/21 21/1/21 24/1/21
f 58/1/22 63/1/22 24/1/22 23/1/22
f 26/1/23 28/1/23 112/1/23 110/1/23
f 71/1/24 70/1/24 25/1/24 27/1/24
f 70/1/25 67/1/25 26/1/25 25/1/25
f 66/1/26 71/1/26 27/1/26 28/1/26
f 32/1/27 31/1/27 115/1/27 116/1/27
f 77/1/28 75/1/28 29/1/28 31/1/28
f 79/1/29 77/1/29 31/1/29 32/1/29
f 74/1/30 79/1/30 32/1/30 30/1/30
f 24/1/31 21/1/31 105/1/31 108/1/31
f 85/1/32 83/1/32 34/1/32 33/1/32
f 87/1/33 85/1/33 33/1/33 35/1/33
f 82/1/34 87/1/34 35/1/34 36/1/34
f 13/1/35 14/1/35 55/1/35 53/1/35
f 53/1/36 55/1/36 56/1/36 54/1/36
f 12/1/37 13/1/37 53/1/37 51/1/37
f 51/1/38 53/1/38 54/1/38 52/1/38
f 8/1/39 12/1/39 51/1/39 38/1/39
f 38/1/40 51/1/40 52/1/40 37/1/40
f 10/1/41 9/1/41 49/1/41 47/1/41
f 47/1/42 49/1/42 50/1/42 48/1/42
f 11/1/43 10/1/43 47/1/43 45/1/43
f 45/1/44 47/1/44 48/1/44 46/1/44
f 2/1/45 11/1/45 45/1/45 44/1/45
f 44/1/46 45/1/46 46/1/46 43/1/46
f 9/1/47 1/1/47 39/1/47 49/1/47
f 49/1/48 39/1/48 40/1/48 50/1/48
f 6/1/49 2/1/49 44/1/49 37/1/49
f 37/1/50 44/1/50 43/1/50 38/1/50
f 14/1/51 7/1/51 41/1/51 55/1/51
f 55/1/52 41/1/52 42/1/52 56/1/52
f 1/1/53 5/1/53 42/1/53 39/1/53
f 39/1/54 42/1/54 41/1/54 40/1/54
f 9/1/55 18/1/55 64/1/55 57/1/55
f 57/1/56 64/1/56 63/1/56 58/1/56
f 18/1/57 5/1/57 62/1/57 64/1/57
f 64/1/58 62/1/58 61/1/58 63/1/58
f 5/1/59 1/1/59 60/1/59 62/1/59
f 62/1/60 60/1/60 59/1/60 61/1/60
f 1/1/61 9/1/61 57/1/61 60/1/61
f 60/1/62 57/1/62 58/1/62 59/1/62
f 19/1/63 18/1/63 72/1/63 65/1/63
f 65/1/64 72/1/64 71/1/64 66/1/64
f 9/1/65 10/1/65 68/1/65 69/1/65
f 69/1/66 68/1/66 67/1/66 70/1/66
f 18/1/67 9/1/67 69/1/67 72/1/67
f 72/1/68 69/1/68 70/1/68 71/1/68
f 10/1/69 19/1/69 65/1/69 68/1/69
f 68/1/70 65/1/70 66/1/70 67/1/70
f 11/1/71 20/1/71 80/1/71 73/1/71
f 73/1/72 80/1/72 79/1/72 74/1/72
f 20/1/73 19/1/73 78/1/73 80/1/73
f 80/1/74 78/1/74 77/1/74 79/1/74
f 19/1/75 10/1/75 76/1/75 78/1/75
f 78/1/76 76/1/76 75/1/76 77/1/76
f 10/1/77 11/1/77 73/1/77 76/1/77
f 76/1/78 73/1/78 74/1/78 75/1/78
f 20/1/79 11/1/79 88/1/79 81/1/79
f 81/1/80 88/1/80 87/1/80 82/1/80
f 11/1/81 2/1/81 86/1/81 88/1/81
f 88/1/82 86/1/82 85/1/82 87/1/82
f 2/1/83 6/1/83 84/1/83 86/1/83
f 86/1/84 84/1/84 83/1/84 85/1/84
f 6/1/85 20/1/85 81/1/85 84/1/85
f 84/1/86 81/1/86 82/1/86 83/1/86
f 90/1/87 89/1/87 93/1/87 94/1/87
f 40/1/88 41/1/88 92/1/88 91/1/88
f 7/1/89 3/1/89 89/1/89 90/1/89
f 41/1/90 7/1/90 90/1/90 92/1/90
f 122/1/91 121/1/91 100/1/91 99/1/91
f 91/1/92 92/1/92 96/1/92 95/1/92
f 89/1/93 91/1/93 95/1/93 93/1/93
f 92/1/94 90/1/94 94/1/94 96/1/94
f 100/1/95 98/1/95 102/1/95 104/1/95
f 123/1/96 122/1/96 99/1/96 97/1/96
f 121/1/97 124/1/97 98/1/97 100/1/97
f 124/1/98 123/1/98 97/1/98 98/1/98
f 103/1/99 104/1/99 102/1/99 101/1/99
f 98/1/100 97/1/100 101/1/100 102/1/100
f 99/1/101 100/1/101 104/1/101 103/1/101
f 97/1/102 99/1/102 103/1/102 101/1/102
f 108/1/103 105/1/103 106/1/103 107/1/103
f 112/1/104 111/1/104 109/1/104 110/1/104
f 116/1/105 115/1/105 113/1/105 114/1/105
f 118/1/106 120/1/106 119/1/106 117/1/106
f 23/1/107 24/1/107 108/1/107 107/1/107
f 30/1/108 32/1/108 116/1/108 114/1/108
f 27/1/109 25/1/109 109/1/109 111/1/109
f 34/1/110 36/1/110 120/1/110 118/1/110
f 31/1/111 29/1/111 113/1/111 115/1/111
f 36/1/112 35/1/112 119/1/112 120/1/112
f 21/1/113 22/1/113 106/1/113 105/1/113
f 25/1/114 26/1/114 110/1/114 109/1/114
f 22/1/115 23/1/115 107/1/115 106/1/115
f 29/1/116 30/1/116 114/1/116 113/1/116
f 28/1/117 27/1/117 111/1/117 112/1/117
f 33/1/118 34/1/118 118/1/118 117/1/118
f 94/1/119 93/1/119 123/1/119 124/1/119
f 96/1/120 94/1/120 124/1/120 121/1/120
f 93/1/121 95/1/121 122/1/121 123/1/121
f 95/1/122 96/1/122 121/1/122 122/1/122
