# Blender 4.5.3 LTS Release Candidate
# www.blender.org
mtllib lever_clutch.mtl
o lever_clutch
v 0.042192 -0.025250 -0.067056
v 0.042192 0.031774 -0.067056
v 0.042192 -0.025250 0.039067
v 0.042192 0.031774 0.039067
v -0.042192 -0.025250 -0.067056
v -0.042192 0.031774 -0.067056
v -0.042192 -0.025250 0.039067
v -0.042192 0.031774 0.039067
v 0.019898 -0.025250 0.039067
v 0.019898 -0.025250 -0.067056
v 0.019898 0.031774 -0.067056
v 0.019898 0.031774 0.039067
v -0.019898 0.031774 0.039067
v -0.019898 -0.025250 0.039067
v -0.019898 -0.025250 -0.067056
v -0.019898 0.031774 -0.067056
v 0.046180 -0.029126 -0.067056
v 0.046180 0.051299 -0.067056
v -0.046180 -0.029126 -0.067056
v -0.046180 0.051299 -0.067056
v 0.046180 -0.029126 -0.077455
v 0.046180 0.051299 -0.077455
v -0.046180 -0.029126 -0.077455
v -0.046180 0.051299 -0.077455
v 0.022690 0.070481 -0.067234
v -0.022690 0.070481 -0.067234
v 0.022690 0.067789 -0.077278
v -0.022690 0.067789 -0.077278
v 0.022690 0.174511 -0.095109
v -0.022690 0.174511 -0.095109
v 0.022690 0.171820 -0.105153
v -0.022690 0.171820 -0.105153
v 0.008907 0.373387 -0.148398
v -0.008909 0.373387 -0.148398
v 0.008907 0.370696 -0.158442
v -0.008909 0.370696 -0.158442
v 0.022689 0.357782 -0.154982
v 0.022689 0.360473 -0.144938
v -0.022691 0.357782 -0.154982
v -0.022691 0.360473 -0.144938
vn 1.0000 -0.0000 -0.0000
vn -1.0000 -0.0000 -0.0000
vn -0.0000 -1.0000 -0.0000
vn -0.0000 -0.0000 1.0000
vn -0.0000 1.0000 -0.0000
vn -0.0000 -0.0000 -1.0000
vn -0.0000 0.0107 -0.9999
vn -0.0000 0.0092 1.0000
vn 0.6014 0.7921 -0.1043
vn -0.6014 0.7921 -0.1043
vn 0.6963 0.6933 -0.1858
vn -0.0000 0.2588 0.9659
vn -0.0000 -0.2588 -0.9659
vn -0.0000 0.9659 -0.2588
vn -0.6963 0.6933 -0.1858
vt 0.863281 0.853516
vt 0.123047 0.873047
vt 0.123047 0.873047
vt 0.123047 0.873047
vt 0.123047 0.873047
s 0
usemtl lever_body
f 1/1/1 2/1/1 4/1/1 3/1/1
f 7/1/2 8/1/2 6/1/2 5/1/2
f 10/1/2 9/1/2 12/1/2 11/1/2
f 14/1/1 15/1/1 16/1/1 13/1/1
f 5/1/3 15/1/3 14/1/3 7/1/3
f 4/1/4 12/1/4 9/1/4 3/1/4
f 8/1/5 13/1/5 16/1/5 6/1/5
f 7/1/4 14/1/4 13/1/4 8/1/4
f 2/1/5 11/1/5 12/1/5 4/1/5
f 3/1/3 9/1/3 10/1/3 1/1/3
f 17/1/4 18/1/4 20/1/4 19/1/4
f 21/1/6 23/1/6 24/1/6 22/1/6
f 19/1/3 23/1/3 21/1/3 17/1/3
f 20/1/2 24/1/2 23/1/2 19/1/2
f 22/1/7 24/1/7 28/1/7 27/1/7
f 17/1/1 21/1/1 22/1/1 18/1/1
f 28/1/2 26/1/2 30/1/2 32/1/2
f 20/1/8 18/1/8 25/1/8 26/1/8
f 18/1/9 22/1/9 27/1/9 25/1/9
f 24/1/10 20/1/10 26/1/10 28/1/10
f 38/2/11 37/3/11 35/4/11 33/4/11
f 26/1/12 25/1/12 29/1/12 30/1/12
f 25/1/1 27/1/1 31/1/1 29/1/1
f 27/1/13 28/1/13 32/1/13 31/1/13
f 33/4/14 35/4/14 36/4/14 34/4/14
f 37/3/13 39/3/13 36/4/13 35/4/13
f 39/3/15 40/5/15 34/4/15 36/4/15
f 40/5/12 38/2/12 33/4/12 34/4/12
f 30/4/12 29/4/12 38/2/12 40/5/12
f 32/4/2 30/4/2 40/5/2 39/3/2
f 31/4/13 32/4/13 39/3/13 37/3/13
f 29/4/1 31/4/1 37/3/1 38/2/1
