# Blender 4.5.3 LTS Release Candidate
# www.blender.org
mtllib signal_box.mtl
o Cube
v 3.000000 3.000000 -2.000000
v 3.000000 0.000000 -2.000000
v 3.000000 3.000000 2.000000
v 3.000000 0.000000 2.000000
v -3.000000 3.000000 -2.000000
v -3.000000 0.000000 -2.000000
v -3.000000 3.000000 2.000000
v -3.000000 0.000000 2.000000
v 0.000000 3.000000 2.000000
v 0.000000 0.000000 -2.000000
v 0.000000 0.000000 2.000000
v 0.000000 3.000000 -2.000000
v 3.000000 3.000000 0.000000
v 3.000000 0.000000 0.000000
v 3.000000 3.000000 2.000000
v 3.000000 0.000000 2.000000
v -3.000000 3.000000 0.000000
v -3.000000 0.000000 0.000000
v -3.000000 3.000000 2.000000
v -3.000000 0.000000 2.000000
v -3.000000 3.000000 -2.000000
v -3.000000 0.000000 -2.000000
v 3.000000 3.000000 -2.000000
v 3.000000 0.000000 -2.000000
v -3.000000 3.000000 -2.000000
v -3.000000 0.000000 -2.000000
v 0.000000 0.000000 -2.000000
v 0.000000 3.000000 -2.000000
v 3.000000 0.000000 2.000000
v -3.000000 0.000000 2.000000
v -3.000000 0.000000 -2.000000
v 3.000000 0.000000 -2.000000
v -3.000000 0.000000 -2.000000
v 0.000000 0.000000 -2.000000
v 3.500000 0.000000 2.000000
v -3.500000 0.000000 2.000000
v -3.500000 0.000000 -2.500000
v 3.500000 0.000000 -2.500000
v 0.000000 0.000000 -2.500000
v 3.500000 -1.000000 2.000000
v -3.500000 -1.000000 2.000000
v -3.500000 -1.000000 -2.500000
v 3.500000 -1.000000 -2.500000
v 0.000000 -1.000000 -2.500000
v -3.000000 3.000000 -2.000000
v -3.000000 3.000000 2.200000
v 3.000000 3.000000 2.200000
v 3.000000 3.000000 -2.000000
v -3.000000 3.000000 -2.000000
v 0.000000 3.000000 -2.000000
v -3.500000 3.000000 -2.500000
v -3.500000 3.000000 2.200000
v 3.500000 3.000000 2.200000
v 3.500000 3.000000 -2.500000
v 0.000000 3.000000 -2.500000
v 3.100000 3.000000 0.000000
v 3.100000 0.000000 0.000000
v 3.100000 3.000000 2.100000
v 3.100000 0.000000 2.100000
v -3.100000 3.000000 2.100000
v -3.100000 0.000000 2.100000
v 0.000000 3.000000 2.100000
v 0.000000 0.000000 2.100000
v -3.100000 3.000000 0.000000
v -3.100000 0.000000 0.000000
v 3.000000 3.000000 0.000000
v 3.000000 0.000000 0.000000
v -3.000000 3.000000 0.000000
v -3.000000 0.000000 0.000000
v 3.000000 3.000000 2.300000
v -3.000000 3.000000 2.300000
v 0.000000 3.000000 2.300000
v 3.500000 3.100000 -2.500000
v 3.500000 3.100000 2.300000
v -3.500000 3.100000 -2.500000
v -3.500000 3.100000 2.300000
v 0.000000 3.100000 2.300000
v 0.000000 3.100000 -2.500000
vn -0.0000 -1.0000 -0.0000
vn -0.0000 -0.0000 -1.0000
vn -1.0000 -0.0000 -0.0000
vn 1.0000 -0.0000 -0.0000
vn -0.0000 1.0000 -0.0000
vn -0.0000 -0.0000 1.0000
vt 0.000000 0.000000
vt 0.000000 0.500000
vt 0.375000 0.500000
vt 0.375000 0.000000
vt 0.375000 0.875000
vt 0.000000 0.875000
vt 1.000000 0.500000
vt 1.000000 0.875000
vt 0.750000 0.875000
vt 0.750000 0.500000
vt 0.500000 0.875000
vt 0.500000 0.500000
vt 0.125000 0.000000
vt 0.125000 0.500000
vt 0.500000 0.500000
vt 0.500000 0.000000
vt 0.125000 0.500000
vt 0.125000 0.875000
vt 0.125000 0.000000
vt 0.500000 0.000000
vt 0.250000 0.500000
vt 0.500000 0.875000
vt 0.250000 0.875000
vt 0.625000 0.875000
vt 0.625000 0.500000
vt 0.875000 0.500000
vt 0.875000 0.875000
vt 0.531605 0.466779
vt 0.598633 0.469727
vt 0.265625 0.875000
vt 0.265625 0.500000
vt 0.492188 0.500000
vt 0.492188 0.875000
vt 0.596680 0.469727
vt 0.590551 0.467446
s 0
usemtl Material
f 12/1/1 9/2/1 7/3/1 5/4/1
f 11/2/2 8/3/2 7/5/2 9/6/2
f 14/7/3 13/8/3 23/9/3 24/10/3
f 17/11/4 18/12/4 22/10/4 21/9/4
f 10/1/5 11/2/5 4/3/5 2/4/5
f 6/13/5 8/14/5 11/15/5 10/16/5
f 4/17/2 11/12/2 9/11/2 3/18/2
f 1/19/1 3/17/1 9/12/1 12/20/1
f 20/2/4 18/12/4 17/11/4 19/6/4
f 14/21/3 16/12/3 15/22/3 13/23/3
f 27/7/6 28/8/6 25/24/6 26/25/6
f 24/26/6 23/27/6 28/11/6 27/12/6
f 29/28/5 35/28/5 38/28/5 32/28/5
f 31/28/5 37/28/5 36/28/5 30/28/5
f 34/28/5 39/28/5 37/28/5 33/28/5
f 32/28/5 38/28/5 39/28/5 34/28/5
f 38/28/4 35/28/4 40/28/4 43/28/4
f 37/28/2 39/28/2 44/28/2 42/28/2
f 39/28/2 38/28/2 43/28/2 44/28/2
f 36/28/3 37/28/3 42/28/3 41/28/3
f 47/29/1 48/29/1 54/29/1 53/29/1
f 45/29/1 46/29/1 52/29/1 51/29/1
f 50/29/1 55/29/1 54/29/1 48/29/1
f 49/29/1 51/29/1 55/29/1 50/29/1
f 57/21/4 56/23/4 58/22/4 59/12/4
f 63/2/6 62/6/6 60/5/6 61/3/6
f 59/17/6 58/18/6 62/11/6 63/12/6
f 61/2/3 60/6/3 64/11/3 65/12/3
f 56/30/2 57/31/2 67/21/2 66/23/2
f 65/32/2 64/33/2 68/11/2 69/12/2
f 9/34/5 72/34/5 70/34/5 3/34/5
f 9/35/5 7/35/5 71/35/5 72/35/5
f 78/1/5 75/4/5 76/3/5 77/2/5
f 73/19/5 78/20/5 77/12/5 74/17/5
