# Blender 4.5.3 LTS Release Candidate
# www.blender.org
mtllib rail_curve.mtl
o rail_curve
v 2.995272 0.228183 -2.029442
v 2.995272 0.028183 -2.029442
v 3.083661 0.228183 -1.941054
v 3.083661 0.028183 -1.941054
v 0.687500 0.227377 2.500000
v 0.687500 0.027377 2.500000
v 0.812500 0.227377 2.500000
v 0.812500 0.027377 2.500000
v 1.934612 0.228183 -3.090102
v 1.934612 0.028183 -3.090102
v 2.023000 0.228183 -3.001714
v 2.023000 0.028183 -3.001714
v -0.812500 0.227377 2.500000
v -0.812500 0.027377 2.500000
v -0.687500 0.227377 2.500000
v -0.687500 0.027377 2.500000
v 3.006321 0.128183 -2.018394
v 0.796875 0.127377 2.500000
v 3.072612 0.128183 -1.952103
v 0.703125 0.127377 2.500000
v 1.945661 0.128183 -3.079054
v -0.703125 0.127377 2.500000
v 2.011952 0.128183 -3.012763
v -0.796875 0.127377 2.500000
v 1.398872 -0.009791 0.637519
v 1.398872 0.052709 0.637519
v -0.383180 -0.009791 -0.270385
v -0.383180 0.052709 -0.270385
v 1.512360 -0.009791 0.414762
v 1.512360 0.052709 0.414762
v -0.269692 -0.009791 -0.493142
v -0.269692 0.052709 -0.493142
v 1.840819 -0.009791 -0.172882
v 1.840819 0.052709 -0.172882
v 0.155075 -0.009791 -1.249110
v 0.155075 0.052709 -1.249110
v 1.975348 -0.009791 -0.383600
v 1.975348 0.052709 -0.383600
v 0.289603 -0.009791 -1.459828
v 0.289603 0.052709 -1.459828
v 2.356282 -0.008985 -0.901090
v 2.356282 0.053515 -0.901090
v 0.838791 -0.008985 -2.203865
v 0.838791 0.053515 -2.203865
v 2.519129 -0.008985 -1.090776
v 2.519129 0.053515 -1.090776
v 1.001638 -0.008985 -2.393551
v 1.001638 0.053515 -2.393551
v 1.134652 -0.009791 1.432319
v 1.134652 0.052709 1.432319
v -0.767460 -0.009791 0.814284
v -0.767460 0.052709 0.814284
v 1.211907 -0.009791 1.194555
v 1.211907 0.052709 1.194555
v -0.690206 -0.009791 0.576520
v -0.690206 0.052709 0.576520
v 1.015115 -0.009791 2.226618
v 1.015115 0.052709 2.226618
v -0.960249 -0.009791 1.913673
v -0.960249 0.052709 1.913673
v 1.054234 -0.009791 1.979697
v 1.054234 0.052709 1.979697
v -0.921131 -0.009791 1.666752
v -0.921131 0.052709 1.666752
v 2.285750 0.028183 -1.319920
v 1.951845 0.027377 -0.914905
v 1.657947 0.027377 -0.510400
v 1.404146 0.027377 -0.061232
v 1.177170 0.027377 0.384281
v 1.030583 0.027377 0.741341
v 0.876074 0.027377 1.216869
v 0.804260 0.027377 1.560418
v 0.726024 0.027377 2.054260
v 2.374139 0.228183 -1.231532
v 2.052971 0.227377 -0.841431
v 1.759074 0.227377 -0.436926
v 1.515525 0.227377 -0.004488
v 1.288549 0.227377 0.441025
v 1.149465 0.227377 0.779968
v 0.994956 0.227377 1.255497
v 0.927720 0.227377 1.579977
v 0.849484 0.227377 2.073819
v 0.849484 0.027377 2.073819
v 0.927720 0.027377 1.579977
v 0.994956 0.027377 1.255497
v 1.149465 0.027377 0.779968
v 1.288549 0.027377 0.441025
v 1.515525 0.027377 -0.004488
v 1.759074 0.027377 -0.436926
v 2.052971 0.027377 -0.841431
v 2.374139 0.028183 -1.231532
v 0.726024 0.227377 2.054260
v 0.804260 0.227377 1.560418
v 0.876074 0.227377 1.216869
v 1.030583 0.227377 0.741341
v 1.177170 0.227377 0.384281
v 1.404146 0.227377 -0.061232
v 1.657947 0.227377 -0.510400
v 1.951845 0.227377 -0.914905
v 2.285750 0.228183 -1.319920
v 0.741456 0.127377 2.056705
v 0.819693 0.127377 1.562863
v 0.890935 0.127377 1.221698
v 1.045444 0.127377 0.746169
v 1.191093 0.127377 0.391374
v 1.418069 0.127377 -0.054139
v 1.670588 0.127377 -0.501216
v 1.964486 0.127377 -0.905721
v 2.296799 0.128183 -1.308872
v 2.363090 0.128183 -1.242580
v 2.040330 0.127377 -0.850615
v 1.746433 0.127377 -0.446110
v 1.501602 0.127377 -0.011581
v 1.274626 0.127377 0.433932
v 1.134605 0.127377 0.775140
v 0.980096 0.127377 1.250668
v 0.912288 0.127377 1.577532
v 0.834052 0.127377 2.071374
v 1.225090 0.028183 -2.380580
v 0.738329 0.027377 -1.796597
v 0.444432 0.027377 -1.392092
v 0.067607 0.027377 -0.742160
v -0.159369 0.027377 -0.296647
v -0.396001 0.027377 0.277815
v -0.550510 0.027377 0.753343
v -0.677263 0.027377 1.325710
v -0.755500 0.027377 1.819551
v 1.313478 0.228183 -2.292192
v 0.839456 0.227377 -1.723123
v 0.545558 0.227377 -1.318617
v 0.178986 0.227377 -0.685416
v -0.047990 0.227377 -0.239903
v -0.277119 0.227377 0.316442
v -0.431628 0.227377 0.791970
v -0.553803 0.227377 1.345269
v -0.632039 0.227377 1.839110
v -0.632039 0.027377 1.839110
v -0.553803 0.027377 1.345269
v -0.431628 0.027377 0.791970
v -0.277119 0.027377 0.316442
v -0.047990 0.027377 -0.239903
v 0.178986 0.027377 -0.685416
v 0.545558 0.027377 -1.318617
v 0.839456 0.027377 -1.723123
v 1.313478 0.028183 -2.292192
v -0.755500 0.227377 1.819551
v -0.677263 0.227377 1.325710
v -0.550510 0.227377 0.753343
v -0.396001 0.227377 0.277815
v -0.159369 0.227377 -0.296647
v 0.067607 0.227377 -0.742160
v 0.444432 0.227377 -1.392092
v 0.738329 0.227377 -1.796597
v 1.225090 0.228183 -2.380580
v -0.740067 0.127377 1.821996
v -0.661831 0.127377 1.328155
v -0.535650 0.127377 0.758171
v -0.381141 0.127377 0.282643
v -0.145446 0.127377 -0.289554
v 0.081530 0.127377 -0.735067
v 0.457073 0.127377 -1.382907
v 0.750970 0.127377 -1.787413
v 1.236139 0.128183 -2.369532
v 1.302430 0.128183 -2.303240
v 0.826815 0.127377 -1.732307
v 0.532918 0.127377 -1.327802
v 0.165063 0.127377 -0.692509
v -0.061913 0.127377 -0.246996
v -0.291979 0.127377 0.311613
v -0.446488 0.127377 0.787142
v -0.569236 0.127377 1.342824
v -0.647472 0.127377 1.836665
v 2.886644 -0.008986 -1.476680
v 2.886644 0.053514 -1.476680
v 1.472430 -0.008986 -2.890894
v 1.472430 0.053514 -2.890894
v 3.063420 -0.008986 -1.653457
v 3.063420 0.053514 -1.653457
v 1.649207 -0.008985 -3.067670
v 1.649207 0.053515 -3.067670
vn -0.0000 1.0000 -0.0000
vn 0.9844 -0.1539 0.0854
vn -0.0000 -0.0000 1.0000
vn 0.7071 -0.0000 -0.7071
vn -0.6986 -0.1544 -0.6986
vn 0.9846 -0.1539 0.0826
vn -0.6986 0.1544 -0.6986
vn 0.9844 0.1539 0.0854
vn 0.9846 0.1539 0.0826
vn -0.4540 -0.0000 0.8910
vn -0.8910 -0.0000 -0.4540
vn 0.4540 -0.0000 -0.8910
vn 0.8910 -0.0000 0.4540
vn -0.5381 -0.0000 0.8429
vn -0.8429 -0.0000 -0.5381
vn 0.5381 -0.0000 -0.8429
vn 0.8429 -0.0000 0.5381
vn -0.6514 -0.0000 0.7587
vn -0.7587 -0.0000 -0.6514
vn 0.6514 -0.0000 -0.7587
vn 0.7587 -0.0000 0.6514
vn -0.3090 -0.0000 0.9511
vn -0.9511 -0.0000 -0.3090
vn 0.3090 -0.0000 -0.9511
vn 0.9511 -0.0000 0.3090
vn -0.1565 -0.0000 0.9877
vn -0.9877 -0.0000 -0.1565
vn 0.1565 -0.0000 -0.9877
vn 0.9877 -0.0000 0.1565
vn 0.6986 0.1544 0.6986
vn 0.7626 0.1539 0.6282
vn 0.7993 0.1544 0.5807
vn 0.8609 0.1538 0.4850
vn 0.8803 0.1544 0.4485
vn 0.9141 0.1539 0.3751
vn 0.9397 0.1544 0.3053
vn 0.9675 0.1538 0.2006
vn 0.9758 0.1544 0.1546
vn -0.9844 0.1539 -0.0851
vn -0.9758 0.1544 -0.1546
vn -0.9672 0.1538 -0.2021
vn -0.9397 0.1544 -0.3053
vn -0.9141 0.1539 -0.3752
vn -0.8803 0.1544 -0.4485
vn -0.8603 0.1538 -0.4860
vn -0.7993 0.1544 -0.5807
vn -0.7626 0.1539 -0.6283
vn -0.9844 -0.1539 -0.0851
vn -0.9758 -0.1544 -0.1546
vn -0.9672 -0.1538 -0.2021
vn -0.9397 -0.1544 -0.3053
vn -0.9141 -0.1539 -0.3752
vn -0.8803 -0.1544 -0.4485
vn -0.8603 -0.1538 -0.4860
vn -0.7993 -0.1544 -0.5807
vn -0.7623 -0.1539 -0.6287
vn 0.6986 -0.1544 0.6986
vn 0.7630 -0.1539 0.6279
vn 0.7993 -0.1544 0.5807
vn 0.8609 -0.1538 0.4850
vn 0.8803 -0.1544 0.4485
vn 0.9141 -0.1539 0.3751
vn 0.9397 -0.1544 0.3053
vn 0.9675 -0.1538 0.2006
vn 0.9758 -0.1544 0.1546
vn -0.0010 1.0000 0.0012
vn 0.7591 0.1539 0.6325
vn 0.8551 0.1539 0.4951
vn 0.9136 0.1539 0.3763
vn 0.9648 0.1539 0.2131
vn -0.9846 0.1539 -0.0825
vn -0.9647 0.1539 -0.2136
vn -0.9136 0.1539 -0.3763
vn -0.8548 0.1539 -0.4956
vn -0.7591 0.1539 -0.6325
vn -0.9846 -0.1539 -0.0825
vn -0.9647 -0.1539 -0.2136
vn -0.9136 -0.1539 -0.3763
vn -0.8548 -0.1539 -0.4956
vn -0.7589 -0.1539 -0.6328
vn 0.7593 -0.1539 0.6323
vn 0.8551 -0.1539 0.4951
vn 0.9136 -0.1539 0.3763
vn 0.9648 -0.1539 0.2131
vn -0.0007 1.0000 0.0008
vn -0.7071 -0.0000 0.7071
vn -0.7071 -0.0000 -0.7071
vn 0.7071 -0.0000 0.7071
vt 0.136719 0.876953
vt 0.136719 0.876953
vt 0.123047 0.617188
vt 0.375000 0.884766
vt 0.123047 0.617188
vt 0.123047 0.617187
vt 0.123047 0.617187
s 0
usemtl rail
f 92/1/1 5/1/1 7/1/1 82/2/1
f 118/3/2 82/3/2 7/3/2 18/3/2
f 18/3/3 7/3/3 5/3/3 20/3/3
f 17/3/4 1/3/4 3/3/4 19/3/4
f 109/3/5 100/3/5 1/3/5 17/3/5
f 146/1/1 13/1/1 15/1/1 136/2/1
f 172/3/6 136/3/6 15/3/6 22/3/6
f 22/3/3 15/3/3 13/3/3 24/3/3
f 21/3/4 9/3/4 11/3/4 23/3/4
f 163/3/5 154/3/5 9/3/5 21/3/5
f 65/1/7 109/2/7 17/1/7 2/1/7
f 2/3/4 17/3/4 19/3/4 4/3/4
f 8/3/3 18/3/3 20/3/3 6/3/3
f 83/1/8 118/2/8 18/1/8 8/1/8
f 119/1/7 163/2/7 21/1/7 10/1/7
f 10/3/4 21/3/4 23/3/4 12/3/4
f 16/3/3 22/3/3 24/3/3 14/3/3
f 137/1/9 172/2/9 22/1/9 16/1/9
f 25/4/10 26/4/10 28/4/10 27/4/10
f 27/4/11 28/4/11 32/4/11 31/4/11
f 31/4/12 32/4/12 30/4/12 29/4/12
f 29/4/13 30/4/13 26/4/13 25/4/13
f 32/4/1 28/4/1 26/4/1 30/4/1
f 33/4/14 34/4/14 36/4/14 35/4/14
f 35/4/15 36/4/15 40/4/15 39/4/15
f 39/4/16 40/4/16 38/4/16 37/4/16
f 37/4/17 38/4/17 34/4/17 33/4/17
f 40/4/1 36/4/1 34/4/1 38/4/1
f 41/4/18 42/4/18 44/4/18 43/4/18
f 43/4/19 44/4/19 48/4/19 47/4/19
f 47/4/20 48/4/20 46/4/20 45/4/20
f 45/4/21 46/4/21 42/4/21 41/4/21
f 48/4/1 44/4/1 42/4/1 46/4/1
f 49/4/22 50/4/22 52/4/22 51/4/22
f 51/4/23 52/4/23 56/4/23 55/4/23
f 55/4/24 56/4/24 54/4/24 53/4/24
f 53/4/25 54/4/25 50/4/25 49/4/25
f 56/4/1 52/4/1 50/4/1 54/4/1
f 57/4/26 58/4/26 60/4/26 59/4/26
f 59/4/27 60/4/27 64/4/27 63/4/27
f 63/4/28 64/4/28 62/4/28 61/4/28
f 61/4/29 62/4/29 58/4/29 57/4/29
f 64/4/1 60/4/1 58/4/1 62/4/1
f 4/1/30 19/1/30 110/1/30 91/2/30
f 91/2/31 110/1/31 111/1/31 90/2/31
f 90/2/32 111/1/32 112/1/32 89/2/32
f 89/2/33 112/1/33 113/1/33 88/2/33
f 88/2/34 113/1/34 114/2/34 87/2/34
f 87/2/35 114/2/35 115/2/35 86/1/35
f 86/1/36 115/2/36 116/2/36 85/1/36
f 85/1/37 116/2/37 117/2/37 84/1/37
f 84/1/38 117/2/38 118/2/38 83/1/38
f 6/1/39 20/1/39 101/1/39 73/2/39
f 73/2/40 101/1/40 102/1/40 72/2/40
f 72/2/41 102/1/41 103/1/41 71/2/41
f 71/2/42 103/1/42 104/1/42 70/2/42
f 70/2/43 104/1/43 105/2/43 69/2/43
f 69/2/44 105/2/44 106/2/44 68/1/44
f 68/1/45 106/2/45 107/2/45 67/1/45
f 67/1/46 107/2/46 108/2/46 66/1/46
f 66/1/47 108/2/47 109/2/47 65/1/47
f 20/3/48 5/3/48 92/3/48 101/3/48
f 101/3/49 92/3/49 93/3/49 102/3/49
f 102/3/50 93/3/50 94/3/50 103/3/50
f 103/3/51 94/3/51 95/5/51 104/5/51
f 104/5/52 95/5/52 96/6/52 105/6/52
f 105/6/53 96/6/53 97/6/53 106/6/53
f 106/6/54 97/6/54 98/6/54 107/6/54
f 107/6/55 98/6/55 99/7/55 108/7/55
f 108/7/56 99/7/56 100/3/56 109/3/56
f 19/3/57 3/3/57 74/3/57 110/3/57
f 110/3/58 74/3/58 75/3/58 111/3/58
f 111/3/59 75/3/59 76/3/59 112/3/59
f 112/3/60 76/3/60 77/5/60 113/5/60
f 113/5/61 77/5/61 78/6/61 114/6/61
f 114/6/62 78/6/62 79/6/62 115/6/62
f 115/6/63 79/6/63 80/6/63 116/6/63
f 116/6/64 80/6/64 81/7/64 117/7/64
f 117/7/65 81/7/65 82/3/65 118/3/65
f 1/1/1 100/2/1 74/1/1 3/1/1
f 100/2/66 99/2/66 75/1/66 74/1/66
f 99/2/1 98/2/1 76/1/1 75/1/1
f 98/2/1 97/2/1 77/1/1 76/1/1
f 97/2/1 96/2/1 78/2/1 77/1/1
f 96/2/1 95/1/1 79/2/1 78/2/1
f 95/1/1 94/1/1 80/2/1 79/2/1
f 94/1/1 93/1/1 81/2/1 80/2/1
f 93/1/1 92/1/1 82/2/1 81/2/1
f 12/1/30 23/1/30 164/1/30 145/2/30
f 145/2/67 164/1/67 165/1/67 144/2/67
f 144/2/32 165/1/32 166/1/32 143/2/32
f 143/2/68 166/1/68 167/1/68 142/2/68
f 142/2/34 167/1/34 168/2/34 141/2/34
f 141/2/69 168/2/69 169/2/69 140/1/69
f 140/1/36 169/2/36 170/2/36 139/1/36
f 139/1/70 170/2/70 171/2/70 138/1/70
f 138/1/38 171/2/38 172/2/38 137/1/38
f 14/1/71 24/1/71 155/1/71 127/2/71
f 127/2/40 155/1/40 156/1/40 126/2/40
f 126/2/72 156/1/72 157/1/72 125/2/72
f 125/2/42 157/1/42 158/1/42 124/2/42
f 124/2/73 158/1/73 159/2/73 123/2/73
f 123/2/44 159/2/44 160/2/44 122/1/44
f 122/1/74 160/2/74 161/2/74 121/1/74
f 121/1/46 161/2/46 162/2/46 120/1/46
f 120/1/75 162/2/75 163/2/75 119/1/75
f 24/3/76 13/3/76 146/3/76 155/3/76
f 155/3/49 146/3/49 147/3/49 156/3/49
f 156/3/77 147/3/77 148/3/77 157/3/77
f 157/3/51 148/3/51 149/5/51 158/5/51
f 158/5/78 149/5/78 150/6/78 159/6/78
f 159/6/53 150/6/53 151/6/53 160/6/53
f 160/6/79 151/6/79 152/6/79 161/6/79
f 161/6/55 152/6/55 153/7/55 162/7/55
f 162/7/80 153/7/80 154/3/80 163/3/80
f 23/3/57 11/3/57 128/3/57 164/3/57
f 164/3/81 128/3/81 129/3/81 165/3/81
f 165/3/59 129/3/59 130/3/59 166/3/59
f 166/3/82 130/3/82 131/5/82 167/5/82
f 167/5/61 131/5/61 132/6/61 168/6/61
f 168/6/83 132/6/83 133/6/83 169/6/83
f 169/6/63 133/6/63 134/6/63 170/6/63
f 170/6/84 134/6/84 135/7/84 171/7/84
f 171/7/65 135/7/65 136/3/65 172/3/65
f 9/1/1 154/2/1 128/1/1 11/1/1
f 154/2/85 153/2/85 129/1/85 128/1/85
f 153/2/1 152/2/1 130/1/1 129/1/1
f 152/2/1 151/2/1 131/1/1 130/1/1
f 151/2/1 150/2/1 132/2/1 131/1/1
f 150/2/1 149/1/1 133/2/1 132/2/1
f 149/1/1 148/1/1 134/2/1 133/2/1
f 148/1/1 147/1/1 135/2/1 134/2/1
f 147/1/1 146/1/1 136/2/1 135/2/1
f 173/4/86 174/4/86 176/4/86 175/4/86
f 175/4/87 176/4/87 180/4/87 179/4/87
f 179/4/4 180/4/4 178/4/4 177/4/4
f 177/4/88 178/4/88 174/4/88 173/4/88
f 180/4/1 176/4/1 174/4/1 178/4/1
